<svg width="27" height="27" viewBox="0 0 27 27" fill="none" xmlns="http://www.w3.org/2000/svg">
<path d="M2.28756 6.40176L12.5883 1.28822C13.1892 1.03254 14.391 0.691682 15.6786 1.54394C16.2967 1.95302 21.8591 5.03815 24.6918 6.40176M2.28756 6.40176C1.4635 7.01536 2.11588 7.68015 2.54508 7.93585C5.46363 9.38468 11.4553 12.3846 12.0733 12.7937C13.1034 13.4073 14.2193 13.2198 14.6485 13.0494C17.5671 11.5153 23.6102 8.34493 24.4342 7.93585C25.6703 7.52676 25.121 6.74267 24.6918 6.40176M2.28756 6.40176C1.46356 6.81081 1.08585 7.59492 1 7.93585C1 10.7483 1 16.7311 1 18.1629C0.999939 19.1856 1.08584 19.8675 1.25752 19.9527C4.17608 21.4867 10.3222 24.7594 11.5583 25.5776C13.0004 26.1912 14.2193 26.0037 14.6485 25.8332C17.7387 24.2992 24.0738 21.1288 24.6918 20.7197C25.9278 20.1061 26.0652 19.1004 25.9794 18.6743C25.9794 15.5209 25.9794 9.0097 25.9794 8.19154C25.9794 7.16883 25.121 6.57222 24.6918 6.40176M7.95303 3.84503L19.7989 10.2044" stroke="#404040" stroke-width="2"/>
<path d="M13.9032 13.0968L13.9032 26" stroke="#404040" stroke-width="2"/>
</svg>
