<svg width="11" height="11" viewBox="0 0 11 11" fill="none" xmlns="http://www.w3.org/2000/svg">
<path d="M9.6366 6.06752C9.51129 6.05885 9.38729 6.03657 9.26677 6.00109C9.02085 5.94674 8.77918 5.87458 8.54367 5.78519C8.2876 5.69176 8.00612 5.69661 7.7534 5.79881C7.50068 5.90101 7.29458 6.09333 7.17476 6.33878L7.05332 6.58789C6.51569 6.28794 6.02166 5.91541 5.58505 5.48071C5.15161 5.04283 4.78016 4.54736 4.48108 4.00816L4.71292 3.85316C4.95765 3.73298 5.14941 3.52628 5.25132 3.27283C5.35322 3.01937 5.35806 2.73707 5.2649 2.48026C5.17725 2.24355 5.10534 2.00129 5.04962 1.75505C5.02203 1.63326 4.99995 1.50594 4.98339 1.37861C4.91636 0.988676 4.71271 0.635553 4.40912 0.382838C4.10552 0.130123 3.72194 -0.00557677 3.32744 0.000175656H1.67149C1.43361 -0.00206447 1.19803 0.0471274 0.980804 0.144403C0.763577 0.241678 0.569799 0.384752 0.412661 0.563886C0.255522 0.74302 0.138714 0.954007 0.0701874 1.18248C0.00166074 1.41096 -0.0169754 1.65157 0.0155478 1.88792C0.30961 4.20711 1.36571 6.36196 3.01703 8.01208C4.66836 9.66219 6.82077 10.7135 9.13429 11H9.34405C9.56197 11 9.77776 10.9569 9.97903 10.8731C10.1803 10.7892 10.3631 10.6664 10.5169 10.5116C10.6708 10.3568 10.7926 10.1731 10.8755 9.97094C10.9584 9.76881 11.0007 9.55226 11 9.3337V7.67293C10.9932 7.28839 10.8536 6.91814 10.605 6.62535C10.3563 6.33256 10.014 6.1354 9.6366 6.06752ZM9.91259 9.38905C9.91249 9.46765 9.8957 9.54533 9.86334 9.61692C9.83098 9.68851 9.78379 9.75237 9.72491 9.80424C9.66324 9.85765 9.59112 9.89755 9.51317 9.92138C9.43523 9.94521 9.35318 9.95246 9.27229 9.94264C7.20506 9.67681 5.2849 8.72834 3.81468 7.24682C2.34447 5.76531 1.40787 3.83508 1.15263 1.76059C1.14385 1.6795 1.15155 1.59746 1.17526 1.51944C1.19898 1.44142 1.23823 1.36903 1.29063 1.30665C1.34235 1.2476 1.40602 1.20027 1.47741 1.16782C1.54879 1.13536 1.62624 1.11853 1.70461 1.11843H3.36056C3.48892 1.11556 3.61426 1.15766 3.71501 1.23749C3.81576 1.31731 3.88561 1.42986 3.91254 1.55576C3.93462 1.70708 3.96222 1.85655 3.99534 2.00417C4.05946 2.29602 4.14469 2.5828 4.25035 2.86223L3.47758 3.22207C3.41151 3.25247 3.35207 3.29566 3.30269 3.34917C3.25331 3.40267 3.21495 3.46543 3.18982 3.53385C3.16468 3.60226 3.15327 3.67498 3.15624 3.74782C3.15921 3.82067 3.1765 3.89221 3.20711 3.95834C4.00152 5.66492 5.36936 7.03674 7.07098 7.83347C7.20689 7.88826 7.35853 7.88899 7.49495 7.83549C7.63138 7.782 7.74231 7.67832 7.80512 7.5456L8.14735 6.77058C8.4327 6.87292 8.72394 6.95796 9.01948 7.02523C9.16668 7.05844 9.31571 7.08612 9.46659 7.10827C9.59212 7.13527 9.70435 7.20533 9.78394 7.30637C9.86353 7.40741 9.90551 7.53312 9.90265 7.66185L9.91259 9.38905Z" fill="#D0564E"/>
</svg>
