<svg width="23" height="22" viewBox="0 0 23 22" fill="none" xmlns="http://www.w3.org/2000/svg">
<path d="M21.5795 0.69812H2.19502C1.87731 0.69812 1.57262 0.821513 1.34796 1.04115C1.12331 1.2608 0.997101 1.55869 0.997101 1.86931L0.997101 20.8213C0.997101 21.132 1.12331 21.4299 1.34796 21.6495C1.57262 21.8691 1.87731 21.9925 2.19502 21.9925H12.6278V13.7409H9.79634V10.5468H12.6278V8.15116C12.5691 7.58873 12.637 7.02056 12.8268 6.48651C13.0165 5.95246 13.3234 5.46545 13.726 5.05965C14.1286 4.65385 14.6172 4.33908 15.1574 4.13742C15.6976 3.93576 16.2764 3.85209 16.8531 3.89228C17.7008 3.88718 18.548 3.92984 19.3906 4.02005V6.89479H17.659C16.2869 6.89479 16.0255 7.53362 16.0255 8.45993V10.5148H19.2925L18.8678 13.709H16.0255V21.9925H21.5795C21.8972 21.9925 22.2019 21.8691 22.4265 21.6495C22.6512 21.4299 22.7774 21.132 22.7774 20.8213V1.86931C22.7774 1.55869 22.6512 1.2608 22.4265 1.04115C22.2019 0.821513 21.8972 0.69812 21.5795 0.69812Z" fill="#808080"/>
</svg>
