<svg width="22" height="22" viewBox="0 0 22 22" fill="none" xmlns="http://www.w3.org/2000/svg">
<path d="M16.7054 4.38205C16.4031 4.38228 16.1102 4.48499 15.8767 4.67268C15.6431 4.86037 15.4833 5.12143 15.4246 5.41137C15.3658 5.70131 15.4117 6.00221 15.5544 6.26279C15.6971 6.52337 15.9278 6.72752 16.2072 6.84045C16.4866 6.95338 16.7974 6.96811 17.0866 6.88213C17.3759 6.79614 17.6257 6.61476 17.7935 6.3689C17.9613 6.12303 18.0367 5.82788 18.0069 5.53374C17.9771 5.2396 17.8439 4.96466 17.63 4.75577C17.5086 4.63716 17.3644 4.5431 17.2058 4.47898C17.0471 4.41486 16.8771 4.38192 16.7054 4.38205ZM21.7149 6.95868C21.6937 6.07527 21.5245 5.20125 21.214 4.37141C20.9371 3.66138 20.5061 3.01844 19.9507 2.48685C19.4115 1.9411 18.7523 1.5224 18.0232 1.26242C17.1766 0.949565 16.2817 0.780327 15.3769 0.762003C14.2225 0.69812 13.8522 0.69812 10.8901 0.69812C7.92799 0.69812 7.55773 0.69812 6.40337 0.762003C5.49857 0.780327 4.60361 0.949565 3.75707 1.26242C3.02926 1.52503 2.37068 1.94337 1.82951 2.48685C1.27131 3.01408 0.843059 3.65851 0.577147 4.37141C0.257152 5.19906 0.0840523 6.07406 0.0653103 6.95868C-3.05176e-05 8.08728 -3.05176e-05 8.44928 -3.05176e-05 11.3453C-3.05176e-05 14.2414 -3.05176e-05 14.6034 0.0653103 15.732C0.0840523 16.6166 0.257152 17.4916 0.577147 18.3192C0.843059 19.0321 1.27131 19.6766 1.82951 20.2038C2.37068 20.7473 3.02926 21.1656 3.75707 21.4282C4.60361 21.7411 5.49857 21.9103 6.40337 21.9286C7.55773 21.9925 7.92799 21.9925 10.8901 21.9925C13.8522 21.9925 14.2225 21.9925 15.3769 21.9286C16.2817 21.9103 17.1766 21.7411 18.0232 21.4282C18.7523 21.1682 19.4115 20.7495 19.9507 20.2038C20.5086 19.6742 20.9399 19.0307 21.214 18.3192C21.5245 17.4894 21.6937 16.6154 21.7149 15.732C21.7149 14.6034 21.7803 14.2414 21.7803 11.3453C21.7803 8.44928 21.7803 8.08728 21.7149 6.95868ZM19.7547 15.6042C19.7468 16.2801 19.6216 16.9497 19.3844 17.5846C19.2105 18.0479 18.9313 18.4666 18.5677 18.809C18.2144 19.1609 17.7871 19.4334 17.3153 19.6076C16.6659 19.8394 15.981 19.9618 15.2897 19.9696C14.2007 20.0228 13.7978 20.0334 10.9337 20.0334C8.06956 20.0334 7.66663 20.0334 6.57762 19.9696C5.85984 19.9827 5.14512 19.8746 4.46493 19.6501C4.01384 19.4671 3.60608 19.1953 3.26701 18.8516C2.90556 18.5096 2.62977 18.0905 2.46114 17.6272C2.19527 16.9832 2.0478 16.2983 2.02554 15.6042C2.02554 14.5395 1.9602 14.1455 1.9602 11.3453C1.9602 8.54511 1.9602 8.15116 2.02554 7.08644C2.03042 6.3955 2.15943 5.71076 2.40669 5.06347C2.59841 4.61407 2.89268 4.21346 3.26701 3.89228C3.59787 3.5262 4.00677 3.23545 4.46493 3.0405C5.12874 2.80631 5.82837 2.68391 6.53406 2.6785C7.62307 2.6785 8.026 2.61462 10.8901 2.61462C13.7542 2.61462 14.1572 2.61462 15.2462 2.6785C15.9374 2.68625 16.6224 2.80866 17.2717 3.0405C17.7666 3.22007 18.2108 3.51201 18.5677 3.89228C18.9245 4.21934 19.2034 4.6192 19.3844 5.06347C19.6265 5.71182 19.7517 6.39627 19.7547 7.08644C19.8091 8.15116 19.82 8.54511 19.82 11.3453C19.82 14.1455 19.8091 14.5395 19.7547 15.6042ZM10.8901 5.88331C9.50632 5.8886 8.17399 6.3968 7.15212 7.3091C6.13026 8.22141 5.4919 9.47262 5.36113 10.8195C5.23037 12.1664 5.61655 13.5127 6.4446 14.5967C7.27264 15.6806 8.48339 16.4248 9.84144 16.6846C11.1995 16.9443 12.6078 16.7011 13.7926 16.0021C14.9774 15.3031 15.8541 14.1983 16.2521 12.9026C16.6501 11.6068 16.5411 10.2126 15.9462 8.9911C15.3513 7.76957 14.313 6.80796 13.0333 6.29323C12.3534 6.02007 11.6251 5.88077 10.8901 5.88331ZM10.8901 14.8908C9.98984 14.8906 9.12184 14.563 8.45495 13.9717C7.78805 13.3805 7.36995 12.5678 7.28196 11.6919C7.19397 10.8159 7.44238 9.93923 7.97889 9.23242C8.51539 8.5256 9.30162 8.03916 10.1846 7.86771C11.0677 7.69627 11.9844 7.85208 12.7564 8.30483C13.5284 8.75758 14.1006 9.47491 14.3616 10.3173C14.6227 11.1597 14.5539 12.0668 14.1687 12.8624C13.7835 13.6579 13.1094 14.2849 12.2775 14.6215C11.8376 14.7994 11.3662 14.891 10.8901 14.8908Z" fill="#808080"/>
</svg>
