<svg width="25" height="23" viewBox="0 0 25 23" fill="none" xmlns="http://www.w3.org/2000/svg">
<path d="M22.2715 0.00163105H2.23363C2.00845 -0.00231614 1.78468 0.0372176 1.57515 0.117967C1.36562 0.198716 1.17445 0.319095 1.01259 0.472204C0.850723 0.625313 0.721352 0.808143 0.631885 1.01022C0.542418 1.2123 0.494613 1.42965 0.491211 1.64982L0.491211 21.3471C0.494188 21.5676 0.541672 21.7854 0.630935 21.9879C0.720199 22.1904 0.849486 22.3737 1.01138 22.5272C1.17327 22.6807 1.36458 22.8015 1.57432 22.8826C1.78407 22.9636 2.00813 23.0034 2.23363 22.9996H22.2715C22.4967 23.0035 22.7205 22.964 22.93 22.8833C23.1395 22.8025 23.3307 22.6821 23.4925 22.529C23.6544 22.3759 23.7838 22.1931 23.8732 21.991C23.9627 21.7889 24.0105 21.5716 24.0139 21.3514V1.64982C24.0107 1.42961 23.963 1.21219 23.8735 1.01005C23.7841 0.807908 23.6548 0.625022 23.4929 0.471885C23.331 0.318748 23.1397 0.198376 22.9301 0.117678C22.7206 0.0369792 22.4967 -0.00245746 22.2715 0.00163105ZM7.62208 19.2528H4.06862V8.86862H7.62208V19.2528ZM5.84589 7.45467H5.82738C5.57444 7.47039 5.3209 7.43486 5.08266 7.3503C4.84442 7.26575 4.62661 7.134 4.44288 6.9633C4.25915 6.7926 4.11346 6.58665 4.01494 6.35833C3.91643 6.13002 3.86721 5.88427 3.87036 5.63649C3.87352 5.38872 3.92899 5.14424 4.0333 4.9184C4.1376 4.69256 4.2885 4.49022 4.47652 4.32405C4.66455 4.15789 4.88565 4.03148 5.12597 3.95276C5.36629 3.87403 5.62066 3.84469 5.87312 3.86657C6.12722 3.84752 6.3826 3.88024 6.62309 3.96267C6.86359 4.04509 7.08397 4.17542 7.27029 4.34542C7.45661 4.51541 7.60482 4.72136 7.70553 4.95024C7.80624 5.17912 7.85726 5.42594 7.85537 5.6751C7.85348 5.92425 7.79872 6.17031 7.69454 6.3977C7.59037 6.62509 7.43906 6.82887 7.25018 6.99614C7.0613 7.16341 6.83897 7.29053 6.59724 7.36946C6.35552 7.44839 6.09968 7.4774 5.84589 7.45467ZM20.4387 19.256H16.8809V13.6971C16.8809 12.3013 16.3658 11.3484 15.0807 11.3484C14.6808 11.3495 14.291 11.4715 13.9647 11.6975C13.6384 11.9236 13.3915 12.2426 13.2577 12.6111C13.1655 12.882 13.1253 13.1671 13.139 13.4522V19.2518H9.58775C9.58775 19.2518 9.63458 9.84178 9.58775 8.86862H13.1401V10.3411C13.4631 9.79696 13.9321 9.3495 14.4964 9.04717C15.0607 8.74484 15.6989 8.59915 16.3418 8.62587C18.6799 8.62587 20.4332 10.109 20.4332 13.3V19.2539L20.4387 19.256ZM13.1172 10.3741L13.1401 10.3411V10.3741H13.1172Z" fill="#808080"/>
</svg>
