<svg width="12" height="11" viewBox="0 0 12 11" fill="none" xmlns="http://www.w3.org/2000/svg">
<path d="M10.3745 0H1.70502C1.2739 0 0.860446 0.201361 0.555602 0.559787C0.250758 0.918212 0.0794983 1.40434 0.0794983 1.91123L0.0794983 8.282C0.0794983 8.78889 0.250758 9.27502 0.555602 9.63345C0.860446 9.99187 1.2739 10.1932 1.70502 10.1932H10.3745C10.8056 10.1932 11.219 9.99187 11.5239 9.63345C11.8287 9.27502 12 8.78889 12 8.282V1.91123C12 1.40434 11.8287 0.918212 11.5239 0.559787C11.219 0.201361 10.8056 0 10.3745 0ZM10.9163 8.12273L8.26128 5.31959L10.9163 3.13442V8.12273ZM1.16318 3.13442L3.81819 5.31959L1.16318 8.12273V3.13442ZM4.72848 6.07135L5.73089 6.89318C5.82159 6.96716 5.92935 7.0068 6.03974 7.0068C6.15013 7.0068 6.25788 6.96716 6.34859 6.89318L7.35099 6.07135L10.0602 8.91908H2.03012L4.72848 6.07135ZM1.70502 1.27415H10.3745C10.4751 1.2751 10.5735 1.30898 10.6587 1.37199C10.7439 1.43501 10.8124 1.52466 10.8567 1.63092L6.03974 5.59354L1.22278 1.63092C1.26706 1.52466 1.33562 1.43501 1.4208 1.37199C1.50597 1.30898 1.60439 1.2751 1.70502 1.27415Z" fill="#D0564E"/>
</svg>
