<svg xmlns="http://www.w3.org/2000/svg" width="31.969" height="28.265" viewBox="0 0 31.969 28.265">
  <g id="Group_2224" data-name="Group 2224" transform="translate(-6.177 -9.37)">
    <path id="Path_276" data-name="Path 276" d="M7.107,24.123A.928.928,0,0,1,6.392,22.6l4.171-5.022,5.022,4.151A.931.931,0,1,1,14.4,23.163l-3.59-2.975-2.985,3.6a.909.909,0,0,1-.715.336Z" fill="#fff"/>
    <g id="Group_2222" data-name="Group 2222">
      <path id="Path_277" data-name="Path 277" d="M24.022,37.635a14.009,14.009,0,0,1-2.353-.195A14.174,14.174,0,0,1,10.01,21.179l.185-1.471a.927.927,0,1,1,1.84.224l-.184,1.5A12.311,12.311,0,0,0,31.136,33.483a12.181,12.181,0,0,0,4.971-7.969A12.3,12.3,0,0,0,15.246,14.85a.926.926,0,1,1-1.309-1.31A14.167,14.167,0,0,1,37.956,25.822,14,14,0,0,1,32.24,35a14.144,14.144,0,0,1-8.218,2.639Z" fill="#fff"/>
      <path id="Path_278" data-name="Path 278" d="M23.948,29.7l-4.223-3.385a.932.932,0,0,1,1.165-1.454l2.771,2.232,5.594-6.976A.932.932,0,0,1,30.71,21.28L23.948,29.7Z" fill="#fff"/>
    </g>
  </g>
</svg>
