<svg width="20" height="20" viewBox="0 0 20 20" fill="none" xmlns="http://www.w3.org/2000/svg">
<path d="M5.833 1.50029e-07H3.333C2.44903 1.50029e-07 1.60127 0.351155 0.976213 0.976213C0.351155 1.60127 1.50029e-07 2.44903 1.50029e-07 3.333V5.833C-0.000131197 6.27078 0.0859825 6.7043 0.253423 7.10879C0.420863 7.51328 0.666349 7.88083 0.97586 8.19043C1.28537 8.50004 1.65284 8.74563 2.05729 8.91319C2.46173 9.08076 2.89522 9.167 3.333 9.167H5.833C6.27086 9.16713 6.70446 9.08098 7.10902 8.91348C7.51358 8.74598 7.88117 8.5004 8.19079 8.19079C8.5004 7.88117 8.74598 7.51358 8.91348 7.10902C9.08098 6.70446 9.16713 6.27086 9.167 5.833V3.333C9.167 2.89522 9.08076 2.46173 8.91319 2.05729C8.74563 1.65284 8.50004 1.28537 8.19043 0.97586C7.88083 0.666349 7.51328 0.420863 7.10879 0.253423C6.7043 0.0859825 6.27078 -0.000131197 5.833 1.50029e-07ZM7.5 5.833C7.5 6.27512 7.32437 6.69912 7.01175 7.01175C6.69912 7.32437 6.27512 7.5 5.833 7.5H3.333C2.89106 7.49973 2.46731 7.32399 2.1549 7.01139C1.84249 6.6988 1.667 6.27494 1.667 5.833V3.333C1.66727 2.89123 1.84287 2.46763 2.15525 2.15525C2.46763 1.84287 2.89123 1.66727 3.333 1.667H5.833C6.27494 1.667 6.6988 1.84249 7.01139 2.1549C7.32399 2.46731 7.49973 2.89106 7.5 3.333V5.833Z" fill="black"/>
<path d="M16.666 0H14.166C13.282 0 12.4343 0.351154 11.8092 0.976213C11.1842 1.60127 10.833 2.44903 10.833 3.333V5.833C10.833 6.71697 11.1842 7.56473 11.8092 8.18979C12.4343 8.81485 13.282 9.166 14.166 9.166H16.666C17.55 9.166 18.3977 8.81485 19.0228 8.18979C19.6479 7.56473 19.999 6.71697 19.999 5.833V3.333C19.999 2.44903 19.6479 1.60127 19.0228 0.976213C18.3977 0.351154 17.55 0 16.666 0ZM18.333 5.833C18.333 6.27512 18.1574 6.69912 17.8448 7.01175C17.5321 7.32437 17.1081 7.5 16.666 7.5H14.166C13.7239 7.5 13.2999 7.32437 12.9873 7.01175C12.6746 6.69912 12.499 6.27512 12.499 5.833V3.333C12.499 2.89088 12.6746 2.46688 12.9873 2.15425C13.2999 1.84163 13.7239 1.666 14.166 1.666H16.666C17.1081 1.666 17.5321 1.84163 17.8448 2.15425C18.1574 2.46688 18.333 2.89088 18.333 3.333V5.833Z" fill="black"/>
<path d="M5.833 10.833H3.333C2.44903 10.833 1.60127 11.1842 0.976213 11.8092C0.351154 12.4343 0 13.282 0 14.166L0 16.666C0 17.55 0.351154 18.3977 0.976213 19.0228C1.60127 19.6479 2.44903 19.999 3.333 19.999H5.833C6.71697 19.999 7.56473 19.6479 8.18979 19.0228C8.81485 18.3977 9.166 17.55 9.166 16.666V14.166C9.166 13.282 8.81485 12.4343 8.18979 11.8092C7.56473 11.1842 6.71697 10.833 5.833 10.833ZM7.5 16.666C7.5 17.1081 7.32437 17.5321 7.01175 17.8448C6.69912 18.1574 6.27512 18.333 5.833 18.333H3.333C2.89088 18.333 2.46688 18.1574 2.15425 17.8448C1.84163 17.5321 1.666 17.1081 1.666 16.666V14.166C1.666 13.7239 1.84163 13.2999 2.15425 12.9873C2.46688 12.6746 2.89088 12.499 3.333 12.499H5.833C6.27512 12.499 6.69912 12.6746 7.01175 12.9873C7.32437 13.2999 7.5 13.7239 7.5 14.166V16.666Z" fill="black"/>
<path d="M16.666 10.833H14.166C13.282 10.833 12.4343 11.1842 11.8092 11.8092C11.1842 12.4343 10.833 13.282 10.833 14.166V16.666C10.833 17.55 11.1842 18.3977 11.8092 19.0228C12.4343 19.6479 13.282 19.999 14.166 19.999H16.666C17.55 19.999 18.3977 19.6479 19.0228 19.0228C19.6479 18.3977 19.999 17.55 19.999 16.666V14.166C19.999 13.282 19.6479 12.4343 19.0228 11.8092C18.3977 11.1842 17.55 10.833 16.666 10.833ZM18.333 16.666C18.333 17.1081 18.1574 17.5321 17.8448 17.8448C17.5321 18.1574 17.1081 18.333 16.666 18.333H14.166C13.7239 18.333 13.2999 18.1574 12.9873 17.8448C12.6746 17.5321 12.499 17.1081 12.499 16.666V14.166C12.499 13.7239 12.6746 13.2999 12.9873 12.9873C13.2999 12.6746 13.7239 12.499 14.166 12.499H16.666C17.1081 12.499 17.5321 12.6746 17.8448 12.9873C18.1574 13.2999 18.333 13.7239 18.333 14.166V16.666Z" fill="black"/>
</svg>
