<svg width="26" height="20" viewBox="0 0 26 20" fill="none" xmlns="http://www.w3.org/2000/svg">
<path d="M25.0833 3.03373C24.181 3.42378 23.2246 3.68104 22.2453 3.79714C23.2796 3.19346 24.0538 2.24239 24.4233 1.1215C23.4534 1.68535 22.3913 2.08155 21.2837 2.29269C20.6066 1.58426 19.7272 1.09143 18.7597 0.878293C17.7923 0.665157 16.7816 0.741584 15.8592 1.09763C14.9368 1.45368 14.1453 2.07287 13.5877 2.87466C13.0301 3.67646 12.7322 4.62375 12.7328 5.59332C12.7308 5.96462 12.7736 6.33485 12.8602 6.69637C10.8939 6.60214 8.97001 6.10369 7.21404 5.23355C5.45806 4.36341 3.90943 3.14112 2.66917 1.6464C2.03524 2.71227 1.84114 3.97445 2.12649 5.17544C2.41183 6.37643 3.15511 7.42573 4.20468 8.10926C3.41653 8.08857 2.64555 7.87948 1.95913 7.50024V7.55986C1.95886 8.67629 2.3537 9.75842 3.07663 10.6226C3.79956 11.4868 4.80606 12.0798 5.92532 12.3011C5.49932 12.4139 5.05986 12.4708 4.6185 12.4704C4.30658 12.471 3.99538 12.441 3.68957 12.3809C4.00511 13.3419 4.62009 14.1824 5.44843 14.7847C6.27678 15.3871 7.27702 15.7211 8.30917 15.7401C6.5583 17.0854 4.39504 17.8149 2.16822 17.811C1.77585 17.8104 1.38386 17.7873 0.994263 17.7418C3.24513 19.1739 5.87414 19.9335 8.55965 19.9277C10.4118 19.94 12.2479 19.5923 13.9614 18.9049C15.6749 18.2174 17.2316 17.2039 18.541 15.9232C19.8504 14.6425 20.8865 13.1201 21.5889 11.4446C22.2914 9.76906 22.6463 7.97374 22.633 6.16295C22.633 5.95 22.633 5.74345 22.6177 5.53902C23.5852 4.85368 24.4201 4.00534 25.0833 3.03373Z" fill="#808080"/>
</svg>
